<svg xmlns="http://www.w3.org/2000/svg" version="1.1" xmlns:xlink="http://www.w3.org/1999/xlink" xmlns:svgjs="http://svgjs.dev/svgjs" width="1000" height="1000" viewBox="0 0 1000 1000"><g transform="matrix(1,0,0,1,0,0)"><svg viewBox="0 0 280 280" data-background-color="#ffffff" preserveAspectRatio="xMidYMid meet" height="1000" width="1000" xmlns="http://www.w3.org/2000/svg" xmlns:xlink="http://www.w3.org/1999/xlink"><g id="tight-bounds" transform="matrix(1,0,0,1,0,0)"><svg viewBox="0 0 280 280" height="280" width="280"><g><svg viewBox="0 0 280 280" height="280" width="280"><g><svg viewBox="0 0 280 280" height="280" width="280"><g id="textblocktransform"><svg viewBox="0 0 280 280" height="280" width="280" id="textblock"><g><svg viewBox="0 0 280 280" height="280" width="280"><g transform="matrix(1,0,0,1,57.50420886156945,57.50420886156945)"><svg viewBox="0 0 164.9915822768611 164.9915822768611" height="164.9915822768611" width="164.9915822768611"><g><circle r="82" cx="82.49579113843055" cy="82.49579113843055" fill="#4b91f1" data-fill-palette-color="accent"></circle><svg xmlns="http://www.w3.org/2000/svg" xmlns:xlink="http://www.w3.org/1999/xlink" version="1.1" x="24.74873734152917" y="24.748737341529164" viewBox="8 25.50000762939453 73 35.49999237060547" enable-background="new 0 0 90 90" xml:space="preserve" height="115.49410759380275" width="115.49410759380275" class="icon-o-0" data-fill-palette-color="quaternary" id="o-0"><g fill="#ffffff" data-fill-palette-color="quaternary"><path d="M25.8 41.9c0-4.9-4-8.9-8.9-8.9-4.9 0-8.9 4-8.9 8.9 0 1.5 0.4 3 1.1 4.3h0l7.9 13.7 7.9-13.7h0C25.4 44.9 25.8 43.5 25.8 41.9zM16.8 45.1c-1.9 0-3.4-1.5-3.4-3.4 0-1.9 1.5-3.4 3.4-3.4 1.9 0 3.4 1.5 3.4 3.4C20.2 43.6 18.7 45.1 16.8 45.1z" fill="#ffffff" data-fill-palette-color="quaternary"></path><path d="M81 41.9c0-4.9-4-8.9-8.9-8.9-4.9 0-8.9 4-8.9 8.9 0 1.5 0.4 3 1.1 4.3h0l7.9 13.7L80 46.2h0C80.7 44.9 81 43.5 81 41.9zM72.1 45.1c-1.9 0-3.4-1.5-3.4-3.4 0-1.9 1.5-3.4 3.4-3.4 1.9 0 3.4 1.5 3.4 3.4C75.5 43.6 74 45.1 72.1 45.1z" fill="#ffffff" data-fill-palette-color="quaternary"></path><g fill="#ffffff" data-fill-palette-color="quaternary"><g fill="#ffffff" data-fill-palette-color="quaternary"><path fill-rule="evenodd" clip-rule="evenodd" d="M33.7 40.5c-0.4 0-0.7 0-1 0-0.2 0-0.4 0-0.5-0.1-0.2-0.1-0.2-0.4-0.4-0.5 0.2-0.1 0.3-0.2 0.5-0.3 0.4-0.1 0.9-0.1 1.3-0.2-0.4-0.7-0.8-1.4-1.2-2.1-0.3-0.5-0.6-1-0.9-1.6-0.2-0.5-0.1-0.6 0.4-0.6 0.4 0 0.8 0 1.2 0 0.5 0 0.8 0.2 1.1 0.5 0.6 0.9 1.3 1.7 1.9 2.6 0.1 0.1 0.3 0.2 0.4 0.2 2.3-0.2 4.5-0.4 6.8-0.5 0 0 0.1 0 0.1-0.1-0.1-0.6-0.3-1.2-0.4-1.8-0.8-3.4-1.6-6.7-2.5-10.1-0.1-0.3 0-0.4 0.3-0.4 1.2 0 2 0.5 2.5 1.6 1.5 2.7 3 5.5 4.5 8.2 0.3 0.6 0.7 1.2 1 1.8 0.1 0.2 0.2 0.3 0.5 0.3 2.1-0.2 4.2-0.2 6.3 0.3 0.6 0.1 1.2 0.4 1.7 0.8 0.7 0.5 0.7 1.2 0 1.7-0.6 0.4-1.3 0.7-1.9 0.9-1.6 0.5-3.2 0.5-4.9 0.5-4.3 0.1-8.5-0.2-12.8-0.4-0.2 0-0.3 0-0.5 0-0.5-0.1-0.9 0.1-1.1 0.5-0.4 0.7-0.9 1.4-1.4 2.1-0.4 0.6-0.9 0.9-1.6 0.8-0.2 0-0.5 0-0.7-0.1-0.5-0.1-0.6-0.3-0.4-0.8 0.5-1 1-1.9 1.5-2.9C33.6 40.8 33.6 40.6 33.7 40.5z" fill="#ffffff" data-fill-palette-color="quaternary"></path><path fill-rule="evenodd" clip-rule="evenodd" d="M48.9 42.8c-1 2-1.9 4-2.8 6-0.6 1.3-1.2 2.5-1.8 3.8-0.4 1-1.7 1.4-2.4 1.4-0.4 0-0.5-0.2-0.5-0.6 0.1-0.4 0.2-0.7 0.2-1.1 0.6-3.1 1.3-6.2 1.9-9.4 0-0.1 0-0.2 0.1-0.3C45.3 42.7 47.1 42.8 48.9 42.8z" fill="#ffffff" data-fill-palette-color="quaternary"></path></g></g><g fill="#ffffff" data-fill-palette-color="quaternary"><path d="M68.7 61h-5.4v-2.4h5.4V61zM57.9 61h-5.4v-2.4h5.4V61zM47.2 61h-5.4v-2.4h5.4V61zM36.4 61H31v-2.4h5.4V61zM25.6 61h-5.4v-2.4h5.4V61z" fill="#ffffff" data-fill-palette-color="quaternary"></path></g></g></svg></g></svg></g><path d="M42.945 195.519l-4.496 1.692-3.729-9.911-20.309 7.641-1.691-4.496 20.308-7.641-3.736-9.93 4.496-1.691zM60.792 228.605l-2.385 1.937c-0.85 0.69-1.695 1.204-2.537 1.543-0.841 0.33-1.663 0.525-2.465 0.584-0.802 0.05-1.576-0.01-2.323-0.177-0.741-0.172-1.436-0.42-2.086-0.743-0.649-0.324-1.241-0.703-1.774-1.138-0.524-0.434-0.973-0.881-1.348-1.343v0l-0.402 13.257-4.687-5.773 0.415-13.241-2.176-2.681 3.729-3.028 6.851 8.438c0.42 0.433 0.865 0.78 1.336 1.043 0.476 0.258 0.962 0.422 1.457 0.493 0.496 0.061 0.997 0.016 1.501-0.136 0.5-0.157 0.994-0.433 1.481-0.828v0l2.354-1.912c0.212-0.172 0.352-0.329 0.419-0.468 0.067-0.14 0.092-0.273 0.077-0.398-0.015-0.125-0.054-0.236-0.115-0.332-0.065-0.102-0.127-0.189-0.186-0.261v0l-9.999-12.316-16.846 13.676-3.028-3.73 18.696-15.177c0.259-0.21 0.543-0.363 0.851-0.46 0.308-0.087 0.615-0.116 0.92-0.089 0.306 0.027 0.602 0.117 0.89 0.27 0.278 0.152 0.527 0.363 0.746 0.633v0l11.499 14.165c0.673 0.829 1.092 1.653 1.259 2.471 0.166 0.819 0.167 1.592 0.001 2.32-0.166 0.728-0.445 1.384-0.838 1.969-0.402 0.584-0.831 1.062-1.287 1.432zM79.441 235.725l-15.677 21.368-3.873-2.841 15.677-21.369zM112.783 260.014l-0.782 2.037c-0.392 1.022-0.87 1.885-1.434 2.59-0.56 0.714-1.176 1.296-1.848 1.746-0.664 0.446-1.36 0.779-2.089 1-0.737 0.225-1.466 0.356-2.187 0.393-0.716 0.04-1.413 0.004-2.093-0.106-0.677-0.117-1.29-0.28-1.838-0.491v0l-10.147-3.894 1.721-4.485 10.147 3.894c0.592 0.17 1.158 0.251 1.697 0.243 0.541-0.014 1.038-0.116 1.49-0.307 0.461-0.195 0.869-0.485 1.224-0.87 0.361-0.383 0.652-0.861 0.872-1.434v0l0.782-2.037c0.155-0.591 0.232-1.154 0.23-1.691-0.005-0.545-0.099-1.046-0.281-1.502-0.191-0.452-0.474-0.861-0.848-1.226-0.377-0.359-0.858-0.651-1.444-0.875v0l-10.12-3.884c-0.598-0.229-1.113-0.248-1.543-0.056-0.425 0.194-0.749 0.584-0.974 1.17v0l-7.078 18.445-4.495-1.724 7.078-18.446c0.442-1.152 1.029-2.049 1.761-2.69 0.726-0.643 1.499-1.094 2.32-1.35 0.818-0.251 1.638-0.347 2.458-0.29 0.821 0.058 1.543 0.206 2.166 0.445v0l10.148 3.894c1.009 0.387 1.867 0.863 2.572 1.427 0.709 0.572 1.287 1.191 1.733 1.855 0.452 0.666 0.784 1.366 0.996 2.097 0.221 0.728 0.353 1.454 0.397 2.178 0.044 0.724 0.01 1.426-0.1 2.106-0.114 0.671-0.278 1.283-0.491 1.838zM152.543 266.816l-0.286 10.826c-0.009 0.347-0.078 0.665-0.205 0.955-0.134 0.29-0.311 0.542-0.531 0.757-0.226 0.208-0.487 0.371-0.783 0.49-0.297 0.112-0.618 0.164-0.966 0.155v0l-17.328-0.457c-0.447-0.012-0.922-0.078-1.427-0.198-0.511-0.114-1.014-0.29-1.508-0.53-0.494-0.233-0.964-0.533-1.408-0.898-0.444-0.359-0.837-0.793-1.177-1.303-0.334-0.509-0.598-1.097-0.794-1.763-0.19-0.659-0.273-1.402-0.252-2.229v0l0.343-13.007c0.012-0.447 0.074-0.922 0.188-1.426 0.12-0.511 0.297-1.013 0.53-1.508 0.24-0.494 0.543-0.964 0.908-1.408 0.372-0.444 0.813-0.836 1.323-1.176 0.503-0.334 1.084-0.599 1.743-0.796 0.659-0.19 1.402-0.273 2.229-0.251v0l19.53 0.515-0.127 4.802-19.529-0.515c-0.627-0.017-1.112 0.138-1.454 0.463-0.342 0.325-0.522 0.814-0.54 1.467v0l-0.341 12.967c-0.016 0.614 0.141 1.095 0.472 1.444 0.325 0.349 0.797 0.532 1.417 0.548v0l14.948 0.394 0.159-6.023-12.787-0.337 0.128-4.843 15.167 0.4c0.347 0.009 0.665 0.081 0.956 0.216 0.29 0.141 0.542 0.325 0.756 0.55 0.208 0.226 0.371 0.487 0.49 0.784 0.113 0.29 0.164 0.602 0.156 0.935zM188.921 242.846l7.544 22.868c0.109 0.329 0.149 0.653 0.12 0.972-0.022 0.316-0.106 0.615-0.253 0.895-0.142 0.272-0.333 0.514-0.571 0.726-0.248 0.208-0.527 0.363-0.837 0.466v0l-10.294 3.396c-0.969 0.32-1.986 0.539-3.05 0.658-1.064 0.119-2.135 0.111-3.212-0.025-1.069-0.132-2.128-0.401-3.175-0.808-1.041-0.408-2.023-0.977-2.945-1.705-0.922-0.729-1.755-1.634-2.498-2.717-0.75-1.081-1.368-2.359-1.856-3.836v0l-4.151-12.584 4.562-1.505 4.152 12.584c0.424 1.286 0.963 2.313 1.617 3.082 0.65 0.776 1.348 1.371 2.096 1.785 0.748 0.414 1.504 0.684 2.27 0.811 0.77 0.118 1.476 0.163 2.12 0.133 0.644-0.03 1.197-0.1 1.659-0.21 0.465-0.104 0.766-0.179 0.906-0.225v0l8.022-2.647-6.798-20.606zM204.541 233.036l14.535 22.161-4.018 2.635-14.534-22.161zM240.604 211.702l3.242 2.861c1.21 1.069 2.138 2.261 2.782 3.578 0.644 1.317 1.008 2.67 1.09 4.059 0.082 1.389-0.118 2.775-0.6 4.157-0.481 1.382-1.247 2.668-2.298 3.859v0l-8.591 9.731c-0.23 0.26-0.487 0.46-0.771 0.601-0.289 0.136-0.587 0.216-0.892 0.24-0.306 0.014-0.609-0.031-0.909-0.134-0.304-0.099-0.586-0.264-0.846-0.494v0l-16.237-14.333c-0.25-0.221-0.446-0.478-0.587-0.772-0.141-0.284-0.223-0.579-0.247-0.885-0.019-0.311 0.021-0.618 0.12-0.923 0.104-0.3 0.271-0.579 0.501-0.839v0l8.591-9.732c1.051-1.19 2.232-2.11 3.544-2.759 1.312-0.649 2.662-1.019 4.05-1.11 1.389-0.091 2.779 0.104 4.171 0.584 1.391 0.481 2.687 1.251 3.887 2.311zM240.66 218.172l-3.242-2.861c-0.705-0.623-1.447-1.078-2.226-1.365-0.779-0.287-1.557-0.404-2.333-0.351-0.782 0.049-1.541 0.264-2.279 0.646-0.733 0.377-1.408 0.915-2.027 1.615v0l-7.014 7.946 12.665 11.18 7.015-7.945c0.618-0.7 1.069-1.437 1.351-2.212 0.282-0.783 0.401-1.564 0.358-2.341-0.044-0.777-0.254-1.532-0.631-2.265-0.382-0.737-0.927-1.42-1.637-2.047zM255.757 178.001l4.483 1.833-5.742 14.045-4.483-1.834zM266.636 180.113l4.446 1.819-6.56 16.045c-0.253 0.618-0.636 1.247-1.15 1.887-0.514 0.64-1.149 1.17-1.904 1.589-0.747 0.416-1.601 0.672-2.563 0.769-0.966 0.088-2.023-0.103-3.172-0.572v0l-16.046-6.561c-0.309-0.126-0.579-0.302-0.811-0.526-0.224-0.228-0.397-0.483-0.521-0.764-0.123-0.281-0.186-0.584-0.19-0.911 0-0.317 0.066-0.636 0.197-0.957v0l8.189-20.029 4.447 1.818-7.288 17.824 13.841 5.659c0.581 0.237 1.088 0.265 1.523 0.082 0.435-0.183 0.774-0.57 1.016-1.163v0z" fill="#77d4fc" data-fill-palette-color="primary"></path><path d="M11.959 78.982L16.581 80.737 12.717 90.917 33.573 98.834 31.819 103.457 10.962 95.539 7.09 105.738 2.468 103.984ZM44.564 44.195L47.006 46.189C47.879 46.902 48.571 47.648 49.081 48.426 49.592 49.204 49.961 49.992 50.188 50.79 50.411 51.583 50.512 52.372 50.491 53.156 50.476 53.945 50.372 54.7 50.18 55.421 49.997 56.141 49.737 56.813 49.402 57.434 49.076 58.055 48.721 58.601 48.337 59.071V59.071L61.77 56.718 56.935 62.641 43.514 64.979 41.267 67.732 37.445 64.611 44.514 55.951C44.866 55.437 45.123 54.915 45.288 54.386 45.443 53.858 45.502 53.338 45.465 52.825 45.427 52.312 45.28 51.817 45.023 51.34 44.762 50.869 44.381 50.428 43.879 50.019V50.019L41.468 48.051C41.251 47.873 41.064 47.764 40.909 47.723 40.748 47.687 40.609 47.689 40.49 47.73 40.365 47.766 40.262 47.829 40.181 47.917 40.095 48.002 40.02 48.083 39.957 48.161V48.161L29.64 60.798 46.921 74.906 43.801 78.728 24.62 63.07C24.351 62.85 24.141 62.596 23.988 62.308 23.831 62.016 23.734 61.713 23.697 61.399 23.661 61.085 23.691 60.769 23.786 60.451 23.878 60.138 24.038 59.842 24.266 59.563V59.563L36.127 45.034C36.823 44.181 37.567 43.587 38.358 43.251 39.149 42.915 39.927 42.753 40.692 42.766 41.457 42.779 42.175 42.922 42.848 43.195 43.521 43.478 44.093 43.811 44.564 44.195ZM59.825 24.159L75.931 46.143 71.951 49.059 55.844 27.075ZM107.549 12.519L108.354 14.611C108.76 15.663 108.994 16.653 109.057 17.579 109.115 18.508 109.045 19.375 108.847 20.18 108.641 20.982 108.334 21.718 107.928 22.39 107.524 23.067 107.061 23.667 106.54 24.189 106.015 24.72 105.457 25.175 104.866 25.552 104.269 25.932 103.687 26.232 103.121 26.45V26.45L92.688 30.466 90.911 25.852 101.344 21.836C101.917 21.558 102.405 21.23 102.811 20.853 103.216 20.475 103.525 20.052 103.738 19.584 103.953 19.122 104.064 18.622 104.071 18.083 104.085 17.542 103.977 16.975 103.75 16.384V16.384L102.944 14.292C102.659 13.736 102.33 13.252 101.956 12.838 101.576 12.427 101.158 12.112 100.702 11.894 100.247 11.677 99.751 11.56 99.216 11.544 98.681 11.529 98.112 11.637 97.508 11.87V11.87L87.112 15.872C86.495 16.109 86.09 16.448 85.894 16.888 85.699 17.327 85.718 17.849 85.95 18.453V18.453L93.25 37.414 88.636 39.19 81.336 20.23C80.881 19.046 80.708 17.958 80.819 16.965 80.936 15.969 81.218 15.095 81.665 14.344 82.116 13.584 82.674 12.944 83.339 12.423 84.01 11.9 84.663 11.517 85.298 11.272V11.272L95.731 7.256C96.771 6.855 97.757 6.63 98.688 6.578 99.617 6.521 100.485 6.594 101.293 6.798 102.092 6.998 102.824 7.303 103.489 7.712 104.16 8.118 104.76 8.581 105.289 9.099 105.826 9.622 106.281 10.183 106.655 10.782 107.033 11.373 107.331 11.952 107.549 12.519ZM152.721 13.61L153.023 24.746C153.032 25.099 152.978 25.431 152.86 25.741 152.741 26.052 152.575 26.32 152.361 26.546 152.14 26.772 151.881 26.953 151.585 27.087 151.281 27.222 150.953 27.295 150.599 27.304V27.304L132.781 27.787C132.32 27.8 131.829 27.76 131.306 27.667 130.776 27.575 130.251 27.422 129.731 27.209 129.211 26.99 128.713 26.706 128.236 26.359 127.753 26.011 127.324 25.586 126.95 25.082 126.576 24.578 126.273 23.992 126.042 23.324 125.81 22.65 125.682 21.889 125.659 21.042V21.042L125.297 7.666C125.285 7.212 125.325 6.72 125.417 6.191 125.509 5.661 125.662 5.136 125.875 4.616 126.088 4.096 126.371 3.598 126.726 3.121 127.08 2.645 127.509 2.219 128.013 1.845 128.516 1.464 129.102 1.158 129.77 0.926 130.438 0.695 131.195 0.567 132.042 0.544V0.544L152.122 0 152.256 4.942 132.176 5.487C131.529 5.504 131.04 5.688 130.709 6.037 130.372 6.387 130.212 6.898 130.23 7.572V7.572L130.592 20.908C130.609 21.542 130.799 22.027 131.162 22.365 131.518 22.702 132.013 22.862 132.647 22.845V22.845L148.014 22.428 147.846 16.235 134.7 16.592 134.565 11.619 150.163 11.197C150.516 11.187 150.848 11.245 151.158 11.37 151.462 11.495 151.731 11.668 151.964 11.889 152.19 12.11 152.37 12.368 152.505 12.665 152.64 12.955 152.712 13.27 152.721 13.61ZM199.78 12.53L192.03 36.047C191.92 36.383 191.756 36.677 191.54 36.928 191.323 37.18 191.073 37.375 190.788 37.513 190.498 37.649 190.19 37.731 189.865 37.757 189.534 37.781 189.207 37.74 188.883 37.634V37.634L178.304 34.147C177.309 33.819 176.333 33.378 175.378 32.825 174.429 32.273 173.551 31.611 172.744 30.84 171.936 30.074 171.225 29.204 170.612 28.23 169.998 27.255 169.533 26.184 169.214 25.019 168.902 23.855 168.769 22.596 168.815 21.241 168.859 19.893 169.132 18.458 169.633 16.937V16.937L173.897 4 178.583 5.544 174.319 18.481C173.883 19.806 173.697 20.988 173.762 22.028 173.829 23.062 174.043 23.979 174.404 24.779 174.772 25.582 175.234 26.268 175.791 26.838 176.348 27.408 176.903 27.876 177.457 28.241 178.009 28.613 178.509 28.897 178.957 29.094 179.407 29.284 179.705 29.403 179.851 29.451V29.451L188.102 32.171 195.085 10.983ZM222.775 25.882L207.878 48.704 203.746 46.007 218.643 23.185ZM248.83 67.977L245.503 70.938C244.266 72.038 242.937 72.837 241.513 73.335 240.086 73.829 238.658 74.032 237.232 73.944 235.809 73.861 234.42 73.489 233.064 72.829 231.714 72.164 230.495 71.221 229.408 70V70L220.54 60.033C220.305 59.769 220.132 59.48 220.023 59.166 219.914 58.853 219.868 58.541 219.886 58.23 219.904 57.919 219.986 57.614 220.131 57.315 220.276 57.017 220.481 56.75 220.745 56.515V56.515L237.381 41.711C237.64 41.481 237.924 41.313 238.233 41.208 238.546 41.099 238.861 41.051 239.177 41.064 239.492 41.078 239.8 41.157 240.099 41.302 240.397 41.448 240.664 41.652 240.899 41.916V41.916L249.768 51.883C250.855 53.104 251.65 54.424 252.153 55.843 252.651 57.266 252.859 58.689 252.776 60.112 252.698 61.539 252.328 62.935 251.667 64.3 251.007 65.656 250.061 66.882 248.83 67.977ZM242.216 67.244L245.543 64.284C246.261 63.645 246.817 62.945 247.211 62.183 247.596 61.421 247.811 60.64 247.858 59.839 247.895 59.038 247.769 58.239 247.48 57.442 247.182 56.645 246.713 55.887 246.074 55.17V55.17L238.836 47.035 225.863 58.578 233.102 66.713C233.741 67.431 234.439 67.984 235.196 68.373 235.953 68.753 236.732 68.971 237.532 69.027 238.333 69.074 239.132 68.953 239.928 68.664 240.726 68.365 241.488 67.892 242.216 67.244ZM266.388 104.542L261.791 106.441 255.833 92.02 260.43 90.121ZM256.914 110.86L252.344 112.748 245.538 96.274C245.275 95.639 245.1 94.899 245.011 94.055 244.925 93.217 245.005 92.372 245.252 91.519 245.495 90.675 245.936 89.872 246.574 89.11 247.21 88.342 248.119 87.713 249.303 87.224V87.224L265.778 80.418C266.099 80.285 266.422 80.22 266.748 80.223 267.08 80.223 267.394 80.284 267.69 80.408 267.984 80.524 268.247 80.697 268.479 80.926 268.713 81.162 268.898 81.443 269.033 81.77V81.77L277.532 102.342 272.963 104.23 265.4 85.924 251.191 91.794C250.593 92.041 250.202 92.387 250.017 92.831 249.835 93.282 249.869 93.809 250.119 94.414V94.414Z" fill="#77d4fc" data-fill-palette-color="primary"></path><path d="M10.824 143.513c0-1.725 1.398-3.123 3.123-3.123 1.725 0 3.123 1.398 3.124 3.123 0 1.725-1.398 3.123-3.124 3.123-1.725 0-3.123-1.398-3.123-3.123zM263.043 143.513c0-1.725 1.398-3.123 3.123-3.123 1.725 0 3.123 1.398 3.123 3.123 0 1.725-1.398 3.123-3.123 3.123-1.725 0-3.123-1.398-3.123-3.123z" fill="#77d4fc" data-fill-palette-color="primary"></path></svg></g></svg></g></svg></g><g></g></svg></g><defs></defs></svg><rect width="280" height="280" fill="none" stroke="none" visibility="hidden"></rect></g></svg></g></svg>